<svg width="263" height="172" viewBox="0 0 263 172" fill="none" xmlns="http://www.w3.org/2000/svg">
<path d="M187.08 2L216.517 121.148" stroke="#343434" stroke-width="3" stroke-linecap="round"/>
<path d="M199.146 55.1443L151.88 120.712" stroke="#343434" stroke-width="3" stroke-linecap="round"/>
<path d="M53.7788 121.747L151.19 121.407" stroke="#343434" stroke-width="3" stroke-linecap="round"/>
<path d="M87.0029 32.3682H136.006" stroke="#343434" stroke-width="3" stroke-linecap="round"/>
<path d="M135.609 109L128 132.799" stroke="#343434" stroke-width="3" stroke-linecap="round"/>
<path d="M128 133H142" stroke="#343434" stroke-width="3" stroke-linecap="round"/>
<path d="M162.923 2L211.926 2" stroke="#343434" stroke-width="3" stroke-linecap="round"/>
<path d="M113.23 32.3682L120.822 55.1442" stroke="#343434" stroke-width="3" stroke-linecap="round"/>
<path d="M261.5 125.198C261.5 148.913 241.666 168.215 217.103 168.215C192.539 168.215 172.706 148.913 172.706 125.198C172.706 101.483 192.539 82.1809 217.103 82.1809C241.666 82.1809 261.5 101.483 261.5 125.198Z" stroke="#343434" stroke-width="3"/>
<path d="M90.2945 126.731C90.2945 150.446 70.4607 169.748 45.8973 169.748C21.3338 169.748 1.5 150.446 1.5 126.731C1.5 103.017 21.3338 83.7144 45.8973 83.7144C70.4607 83.7144 90.2945 103.017 90.2945 126.731Z" stroke="#343434" stroke-width="3"/>
<path d="M120.822 54.6069L53.8744 121.555" stroke="#343434" stroke-width="3" stroke-linecap="round"/>
<path d="M199.503 54.4541L120.822 54.4448" stroke="#343434" stroke-width="3" stroke-linecap="round"/>
</svg>
