<svg width="299" height="160" viewBox="0 0 299 160" fill="none" xmlns="http://www.w3.org/2000/svg">
<path d="M226.483 2C225.649 2.83422 225.256 3.69699 224.378 4.47736C223.787 5.00307 223.141 6.01665 222.608 6.60081C222.081 7.17955 221.839 7.55468 221.193 8.01644C220.484 8.52305 220.131 9.07817 219.423 9.78598C219.151 10.3053 217.798 10.9232 217.3 11.2016C216.27 11.7769 215.303 12.6085 214.231 13.0892C213.495 13.4189 212.739 13.6165 211.986 13.89C211.31 14.136 210.421 14.3267 209.706 14.422C209.114 14.4384 202.902 15.8809 202.329 16.0412C201.807 16.1874 210.055 14.4439 209.514 14.4439C209.103 14.4439 200.02 16.5102 199.604 16.5102C199.263 16.5102 197.618 16.9445 197.481 17.2181" stroke="#343434" stroke-width="3" stroke-linecap="round"/>
<path d="M197.44 17.7288L250.526 116.115" stroke="#343434" stroke-width="3" stroke-linecap="round"/>
<path d="M236.062 17.1895V45.3984" stroke="#343434" stroke-width="3" stroke-linecap="round"/>
<path d="M236.057 17.218C234.517 17.218 229.751 18.5956 228.529 19.5199C227.916 19.9836 227.159 20.7222 226.501 21.111C226.036 21.3858 225.87 21.5193 225.428 21.8665C224.577 22.5347 224.038 23.5108 223.316 24.2962C222.664 25.0056 222.244 26.1841 221.735 27.0111C220.93 28.3204 220.209 29.9496 219.848 31.4336C219.406 33.253 219.758 34.2548 219.848 35.9752C219.881 36.6056 221.09 38.0659 221.44 38.572C221.949 39.3069 222.912 40.1206 223.655 40.5987C224.732 41.2907 228.956 43.4322 230.041 44.115C230.409 44.347 231.748 44.8229 232.164 44.8229C232.734 44.8229 235.151 45.5307 235.703 45.5307" stroke="#343434" stroke-width="3" stroke-linecap="round"/>
<path d="M209.868 81.2754C210.575 80.2137 210.575 79.8597 211.199 79.3466C211.991 78.4441 211.991 78.0902 212.837 77.3824C215.012 75.5629 216.411 74.1591 217.967 72.7187C219.021 71.7425 220.636 71.092 221.889 70.3832C222.504 70.035 223.122 69.6908 223.739 69.3477C224.191 69.0969 224.603 69.0818 225.086 68.8886C225.753 68.6218 226.558 68.1119 227.209 67.8269C227.876 67.5353 230.543 66.4228 231.102 66.0573C233.933 64.9956 233.468 65.2758 235.538 64.6768C240.083 63.3612 244.469 62.4075 249.209 62.4075C255.224 62.4075 261.239 62.4075 267.253 62.4075" stroke="#343434" stroke-width="3" stroke-linecap="round"/>
<path d="M181.555 60.041C183.13 59.8978 188.214 59.2761 189.428 58.436C190.577 57.6408 191.243 57.186 192.172 56.148C193.192 55.0082 194.761 53.522 195.711 52.255C196.223 51.5719 197.502 49.6315 197.618 48.9896C197.998 46.8996 198.273 44.8321 198.273 42.692C198.273 40.3668 197.685 38.9822 196.362 37.1728C193.746 33.5925 189.285 31.0774 185.182 29.9376C182.753 29.2629 180.495 27.8562 177.894 27.5671C175.033 27.2492 172.102 26.6934 169.226 26.5942C167.603 26.5383 165.967 26.5942 164.344 26.5942C162.278 26.5942 160.21 26.7004 158.197 26.7736C154.525 26.7736 150.719 28.6937 147.485 29.9376C146.576 30.2871 146.227 30.5802 145.456 31.0205C144.714 31.4443 144.417 31.538 143.333 32.4361C141.586 33.3075 140.687 34.407 139.365 35.2623C137.856 36.2386 136.083 37.9166 134.839 39.1604C132.984 41.0153 130.559 43.2075 129.512 46C128.801 47.8963 127.294 50.1081 126.965 52.0854C126.676 53.816 125.637 57.2838 125.637 58.9792" stroke="#343434" stroke-width="3" stroke-linecap="round"/>
<path d="M47.7778 60.041L186.115 60.1979" stroke="#343434" stroke-width="3" stroke-linecap="round"/>
<path d="M129.884 45.0626C129.492 43.4952 114.95 45.0626 113.733 45.0626C109.009 45.0626 104.286 45.0626 99.5629 45.0626C95.9542 45.0626 86.9919 45.1768 90.6006 45.1768" stroke="#343434" stroke-width="3" stroke-linecap="round"/>
<path d="M3.1443 77.1858C11.2276 63.8222 19.1487 52.8356 30.3952 48.1649" stroke="#343434" stroke-width="3" stroke-linecap="round"/>
<path d="M3.49854 77.8933H14.4345" stroke="#343434" stroke-width="3" stroke-linecap="round"/>
<path d="M96.2222 63.7371L118.198 138.431" stroke="#343434" stroke-width="3" stroke-linecap="round"/>
<path d="M118.165 138.766H175.435" stroke="#343434" stroke-width="3" stroke-linecap="round"/>
<path d="M176.205 83.9096C196.647 78.2136 211.539 92.8934 177.975 138.765" stroke="#343434" stroke-width="3" stroke-linecap="round"/>
<path d="M140.147 94.0161H174.563" stroke="#343434" stroke-width="3" stroke-linecap="round"/>
<path d="M135.901 60.3948L140.855 93.3082" stroke="#343434" stroke-width="3" stroke-linecap="round"/>
<path d="M107.541 94.3578L140.502 94.0161" stroke="#343434" stroke-width="3" stroke-linecap="round"/>
<path d="M147.89 71.9414H169.251" stroke="#343434" stroke-width="3" stroke-linecap="round"/>
<path d="M151.845 79.4575H165.295" stroke="#343434" stroke-width="3" stroke-linecap="round"/>
<path d="M151.582 86.9736H166.218" stroke="#343434" stroke-width="3" stroke-linecap="round"/>
<path d="M14.5103 77.3825C24.3514 67.6189 33.0158 63.1711 48.4855 60.041" stroke="#343434" stroke-width="3" stroke-linecap="round"/>
<path d="M25.4404 45.3338C51.9555 26.6294 59.3967 28.705 89.8927 45.1769" stroke="#343434" stroke-width="3" stroke-linecap="round"/>
<path d="M297.158 114.346C297.158 138.689 276.799 158.5 251.588 158.5C226.377 158.5 206.018 138.689 206.018 114.346C206.018 90.003 226.377 70.1917 251.588 70.1917C276.799 70.1917 297.158 90.003 297.158 114.346Z" stroke="#343434" stroke-width="3"/>
<path d="M97.5537 114.346C97.5537 138.689 77.1949 158.5 51.9839 158.5C26.7729 158.5 6.41406 138.689 6.41406 114.346C6.41406 90.003 26.7729 70.1917 51.9839 70.1917C77.1949 70.1917 97.5537 90.003 97.5537 114.346Z" stroke="#343434" stroke-width="3"/>
<path d="M278.047 114.346C278.047 128.532 266.237 140.097 251.588 140.097C236.939 140.097 225.129 128.532 225.129 114.346C225.129 100.16 236.939 88.595 251.588 88.595C266.237 88.595 278.047 100.16 278.047 114.346Z" stroke="#343434" stroke-width="3"/>
<path d="M78.4424 114.346C78.4424 128.532 66.6329 140.097 51.9837 140.097C37.3344 140.097 25.5249 128.532 25.5249 114.346C25.5249 100.16 37.3344 88.595 51.9837 88.595C66.6329 88.595 78.4424 100.16 78.4424 114.346Z" stroke="#343434" stroke-width="3"/>
<path d="M96.2632 63.5801L59.4158 101.251" stroke="#343434" stroke-width="3" stroke-linecap="round"/>
<path d="M34.6421 116.823L115.394 138.412" stroke="#343434" stroke-width="3" stroke-linecap="round"/>
<path d="M39.1499 100.286L115.126 133.96" stroke="#343434" stroke-width="3" stroke-linecap="round"/>
<path d="M38.5759 100.386C35.8253 104.463 31.9976 112.237 34.6831 116.312" stroke="#343434" stroke-width="3" stroke-linecap="round"/>
<path d="M24.7329 46.0415L63.8085 60.0797" stroke="#343434" stroke-width="3" stroke-linecap="round"/>
<path d="M175.582 84.2637L174.477 92.9545" stroke="#343434" stroke-width="3" stroke-linecap="round"/>
<path d="M132.949 109.114C131.226 109.711 129.499 110.621 127.849 111.407C126.995 111.834 125.201 115.453 125.201 116.311C125.201 118.091 125.717 120.278 126.255 121.951C126.8 123.646 129.069 125.174 130.595 125.923C132.792 127.001 134.693 127.296 137.118 127.296C138.344 127.296 139.725 127.466 140.894 127.051C143.511 126.121 146.22 124.928 148.642 123.557C149.379 123.14 150.082 122.672 150.457 121.89C151.544 119.616 150.888 114.933 149.267 112.989C146.998 110.265 143.396 108.904 139.876 108.771C137.783 108.692 134.95 108.422 132.949 109.114Z" stroke="#343434" stroke-width="3" stroke-linecap="round"/>
</svg>
