<svg width="232" height="166" viewBox="0 0 232 166" fill="none" xmlns="http://www.w3.org/2000/svg">
<path d="M142.719 11.662L187.277 107.634" stroke="#343434" stroke-width="3" stroke-linecap="round"/>
<path d="M51.228 141.646L155.364 140.812" stroke="#343434" stroke-width="3" stroke-linecap="round"/>
<path d="M156.204 140.86L186.982 108.053" stroke="#343434" stroke-width="3" stroke-linecap="round"/>
<path d="M194.835 118.131L187.277 107.213" stroke="#343434" stroke-width="3" stroke-linecap="round"/>
<path d="M49.7282 141.226C49.7282 154.033 38.9794 164.5 25.6141 164.5C12.2487 164.5 1.5 154.033 1.5 141.226C1.5 128.418 12.2487 117.951 25.6141 117.951C38.9794 117.951 49.7282 128.418 49.7282 141.226Z" stroke="#343434" stroke-width="3"/>
<path d="M230.286 141.226C230.286 154.033 219.538 164.5 206.172 164.5C192.807 164.5 182.058 154.033 182.058 141.226C182.058 128.418 192.807 117.951 206.172 117.951C219.538 117.951 230.286 128.418 230.286 141.226Z" stroke="#343434" stroke-width="3"/>
<path d="M121 20.47L166.389 1.99999" stroke="#343434" stroke-width="3" stroke-linecap="round"/>
</svg>
